<?xml version="1.0" encoding="UTF-8" standalone="no"?>
<!DOCTYPE svg PUBLIC "-//W3C//DTD SVG 1.1//EN" "http://www.w3.org/Graphics/SVG/1.1/DTD/svg11.dtd">
<svg width="456" height="456" viewBox="0 0 456 456" version="1.1" xmlns="http://www.w3.org/2000/svg" xmlns:xlink="http://www.w3.org/1999/xlink" xml:space="preserve" xmlns:serif="http://www.serif.com/" style="fill-rule:evenodd;clip-rule:evenodd;stroke-linejoin:round;stroke-miterlimit:2;">
    <!-- Buffalo head icon -->
    <g transform="translate(228, 228)">
        <!-- Head -->
        <ellipse cx="0" cy="20" rx="80" ry="70" fill="#FFF" />
        
        <!-- Left horn -->
        <path d="M -50,-40 Q -60,-65 -50,-80 Q -45,-70 -40,-50 Z" fill="#FFF" />
        
        <!-- Right horn -->
        <path d="M 50,-40 Q 60,-65 50,-80 Q 45,-70 40,-50 Z" fill="#FFF" />
        
        <!-- Left ear -->
        <ellipse cx="-60" cy="0" rx="20" ry="30" fill="#FFF" />
        
        <!-- Right ear -->
        <ellipse cx="60" cy="0" rx="20" ry="30" fill="#FFF" />
        
        <!-- Snout -->
        <ellipse cx="0" cy="50" rx="45" ry="35" fill="#FFF" />
        
        <!-- Nostrils -->
        <ellipse cx="-15" cy="55" rx="8" ry="10" fill="#8B4513" />
        <ellipse cx="15" cy="55" rx="8" ry="10" fill="#8B4513" />
        
        <!-- Eyes -->
        <ellipse cx="-30" cy="15" rx="10" ry="12" fill="#2F4F4F" />
        <ellipse cx="30" cy="15" rx="10" ry="12" fill="#2F4F4F" />
        
        <!-- Eye highlights -->
        <ellipse cx="-27" cy="12" rx="4" ry="5" fill="#FFF" />
        <ellipse cx="33" cy="12" rx="4" ry="5" fill="#FFF" />
    </g>
</svg>